<svg xmlns="http://www.w3.org/2000/svg" viewBox="0 0 56.26 50.62"><g id="Capa_2" data-name="Capa 2"><g id="Capa_1-2" data-name="Capa 1"><path d="M23.87,20.46c.86-2,2.81-3.18,5.09-4a42.65,42.65,0,0,0,4.28-1.87c3.24-1.6,6.19-.89,8.92,1.16a26.67,26.67,0,0,1,8.92,12.8c1.41,4,2.28,8.06,1.45,12.34-.6,3.11-2.08,5.41-5.21,6.51a52.59,52.59,0,0,0-5.12,2.2A7.62,7.62,0,0,1,34.34,49c-1.15-.74-2.22-1.62-3.34-2.44-2.2.89-4.38,1.87-6.63,2.66a22.39,22.39,0,0,1-11,1.21c-3.24-.49-5.75-1.91-6.95-5.18a41.32,41.32,0,0,0-2.2-5.12c-1.43-2.76-1-5.34.53-7.85a22.09,22.09,0,0,1,9.92-8.32C17.51,22.61,20.51,21.71,23.87,20.46ZM7.56,42.92c.65,3,2.17,5.22,5.4,5.75a16.59,16.59,0,0,0,3.21.34,27.67,27.67,0,0,0,18.64-7.84,16.58,16.58,0,0,0,3.31-4.84,5.06,5.06,0,0,0-1.41-5.84C29.59,40.59,19.88,44.52,7.56,42.92ZM33.27,17.46c9.26,7.16,13.18,16.44,12,27.91a3.7,3.7,0,0,0,4.59-2.06,11.61,11.61,0,0,0,1.23-6.81A29.43,29.43,0,0,0,44,19.7a12.5,12.5,0,0,0-5.65-4A4,4,0,0,0,33.27,17.46Zm-10.5,5.66a1.79,1.79,0,0,0-.53-.15,6.5,6.5,0,0,0-1.06.17,29.32,29.32,0,0,0-11.55,6,12.69,12.69,0,0,0-4.44,6.61,3.63,3.63,0,0,0,2.23,4.4C10.86,34.24,16.6,31.33,22.77,29ZM23,31c-4.85.5-13,6.58-13.73,10.28,5.77,1.28,11-.34,16.12-2.86Zm4.12,6.63,5-4c-2-5.29-2.89-10.4-1.35-15.87-3,.64-5.09,1.91-5.83,4.76C23.62,27.74,25,32.5,27.15,37.67ZM42.82,44.9l.78-.35a34,34,0,0,0,.3-4.92,28.1,28.1,0,0,0-6.39-15.94,35.6,35.6,0,0,0-4.7-4.1c-.1-.08-.33,0-.67,0L32,21.22c3.22.94,4.65,3.36,5.64,6.18A22.33,22.33,0,0,0,39,30.54a8.34,8.34,0,0,1-.45,8.87,11.62,11.62,0,0,0-.59,1.26Zm.29,2.19L36.61,42l-3.9,3.4C36.07,49.31,40,49.64,43.11,47.09Zm-11-19.2,3,.35c.62-2.59-.63-4.48-3.44-5Zm.47,1.86,1,2.25,1-1.89Z"/><path d="M25,13.64,22.67,2.56l.57-.12,2.35,11.08Z"/><path d="M12.4,20l-7-8,.5-.44,7,8.05Z"/><path d="M39.42,10.4,41.94,0l.51.13L40,10.55Z"/><path d="M20,18.16,14.78,9.91l.48-.3,5.19,8.21Z"/><path d="M49.38,18.1l6.56-3.78.32.56-6.57,3.75Z"/><path d="M49.52,7.55l-4.23,6.09-.51-.36L49,7.18Z"/><path d="M6.26,24.94,0,21.35l.26-.47,6.28,3.56Z"/><path d="M32.55,5.92v5.52l-.22,0V5.94Z"/></g></g></svg>