<svg xmlns="http://www.w3.org/2000/svg" viewBox="0 0 162.27 30.46"><defs><style>.cls-1{fill:#ef364c;}</style></defs><g id="Capa_2" data-name="Capa 2"><g id="Capa_1-2" data-name="Capa 1"><path class="cls-1" d="M30.12,0q.21,0,.27.54,0,1.46-2.81,5.11a56.85,56.85,0,0,1-7.38,7.7,53.44,53.44,0,0,1-10.1,7,2.14,2.14,0,0,0-.68.47s.14.06.42.09a22.29,22.29,0,0,1,2.61.68,18.92,18.92,0,0,1,4.19,2,21,21,0,0,1,4.73,4.2A2.43,2.43,0,0,1,22,29.25c0,.3-.1.47-.29.5a.74.74,0,0,1-.47-.26,1,1,0,0,1-.24-.66A4.8,4.8,0,0,0,19.58,27a26.15,26.15,0,0,0-3.11-2.5,23.51,23.51,0,0,0-4-2.22,9.83,9.83,0,0,0-4-.92c-.11,0-.25.28-.42.85s-.34,1.23-.51,2-.32,1.5-.43,2.2A11.21,11.21,0,0,0,7,27.81V28a.16.16,0,0,0,0,.09v.15a.49.49,0,0,1-.14.34.53.53,0,0,1-.35.17.45.45,0,0,1-.32-.15.62.62,0,0,1-.07-.29v-.09a11.16,11.16,0,0,1,.23-1.87c.15-.81.32-1.61.5-2.38s.32-1.37.41-1.78l.07-.31s0,0,0,0h0a2.53,2.53,0,0,0-.56.22c-.55.24-1.33.53-2.32.87a9.11,9.11,0,0,1-2.95.51c-.89,0-1.38-.24-1.46-.73a1.19,1.19,0,0,1,.73-1.09A5.74,5.74,0,0,1,2.47,21a15.18,15.18,0,0,1,1.95-.23c.63,0,1.08-.05,1.36-.05h.8a1.08,1.08,0,0,0,.84-.33,4.5,4.5,0,0,0,.67-1.53c.24-.8.58-2,1-3.73.16-.63.35-1.33.56-2.11,1.79-6.88,3-10.32,3.66-10.32.23,0,.34.1.34.31,0,0-.1.39-.31,1.06s-.48,1.54-.8,2.61l-1.69,5.45q-.91,3-1.59,5.3a18.7,18.7,0,0,0-.68,2.73c0,.06,0,.1.07.1.62,0,1.9-.65,3.86-2a67.79,67.79,0,0,0,6.48-5A63.71,63.71,0,0,0,25.52,6.9,23.5,23.5,0,0,0,29.71.49C29.87.16,30,0,30.12,0ZM5.73,21.13a15.34,15.34,0,0,0-2.35.15,9.2,9.2,0,0,0-1.55.36,4.3,4.3,0,0,0-.91.44,1.47,1.47,0,0,0-.42.39.69.69,0,0,0-.11.19s0,.05.07.05a2.19,2.19,0,0,0,1,.22c.31,0,.62-.05.93-.1a17.17,17.17,0,0,0,1.77-.48,16.8,16.8,0,0,0,1.71-.65c.49-.22.74-.36.74-.42s-.22-.15-.65-.15Z"/><path class="cls-1" d="M38.45,15.86h0l0,0a.12.12,0,0,1,0,.07,4.49,4.49,0,0,1-.89.52,15,15,0,0,1-2.15.92,7.2,7.2,0,0,1-2.42.45,2.31,2.31,0,0,1-1.83-.64,2.86,2.86,0,0,1-.55-1.91c0-.18-.08-.26-.22-.26h0a1.17,1.17,0,0,0-.69.35,2.46,2.46,0,0,0-.67.88c-.21.44-.36.66-.46.66l0,0s0-.05,0-.1a.43.43,0,0,1,0-.17V16.5h0a.51.51,0,0,0-.2.12c-.11.09-.24.19-.38.32-.31.26-.64.52-1,.78a1.62,1.62,0,0,1-.85.39.6.6,0,0,1-.56-.56v-.08a2.86,2.86,0,0,1,.5-1.34,7.27,7.27,0,0,1,1.19-1.51,2,2,0,0,1,1.3-.67.58.58,0,0,1,.56.27,2.06,2.06,0,0,1,.2.51c0,.06,0,.12,0,.16s0,.06.05.06a.71.71,0,0,0,.29-.17c.15-.1.3-.2.46-.29a1,1,0,0,1,.49-.15.51.51,0,0,1,.52.33,4.17,4.17,0,0,1,.23.79,4.15,4.15,0,0,0,.25.88,1.72,1.72,0,0,0,.54.76,1.85,1.85,0,0,0,1.16.3,5.82,5.82,0,0,0,2-.38c.69-.25,1.31-.49,1.84-.74A3.79,3.79,0,0,1,38.45,15.86Zm-10.54.32c.3-.25.52-.43.65-.56a.48.48,0,0,0,.17-.34v0a1.14,1.14,0,0,0,0-.27l-.05-.07a.08.08,0,0,0-.07,0,.85.85,0,0,0-.54.29,6,6,0,0,0-.62.68c-.2.26-.37.49-.51.71a1.62,1.62,0,0,0-.2.4s0,0,0,0A5.08,5.08,0,0,0,27.91,16.18Z"/><path class="cls-1" d="M38.13,19s0,0,0,0a2.29,2.29,0,0,0,.41-.47l.9-1.23c.5-.71,1.05-1.47,1.64-2.26s1.14-1.48,1.65-2,.89-.86,1.13-.86.23.14.27.43a1.29,1.29,0,0,1,0,.25c0,.14,0,.39,0,.75a3.4,3.4,0,0,0,.61,2.16,1.85,1.85,0,0,0,1.53.78,5,5,0,0,0,1.26-.16c.42-.1.78-.21,1.09-.3a2.38,2.38,0,0,1,.58-.15c.15,0,.23,0,.25.12s-.2.17-.6.31a14,14,0,0,1-1.42.38,6.45,6.45,0,0,1-1.48.19,2.59,2.59,0,0,1-1.59-.45,2.48,2.48,0,0,1-.85-1.13,3.79,3.79,0,0,1-.26-1.34,3.31,3.31,0,0,1,.15-1c-.07,0-.3.28-.72.83s-.89,1.22-1.44,2c-.8,1.12-1.56,2.18-2.31,3.17s-1.21,1.5-1.41,1.5l-.12,0a.24.24,0,0,1-.12-.07.75.75,0,0,1-.15-.53,8.08,8.08,0,0,1,.4-2,21.71,21.71,0,0,1,.9-2.45c.33-.74.6-1.12.79-1.12h0a.36.36,0,0,1,.19.11.29.29,0,0,1,.08.19v0a4.82,4.82,0,0,1-.28,1.1c-.19.55-.39,1.11-.6,1.7l-.36,1A2.52,2.52,0,0,0,38.13,19Z"/><path class="cls-1" d="M55.57,15.86h.06s0,0,0,0a4.48,4.48,0,0,1-.6.58c-.41.35-.91.76-1.52,1.2a16.43,16.43,0,0,1-1.88,1.19,3.67,3.67,0,0,1-1.68.52h-.14a1.15,1.15,0,0,1-.39-.05,1.48,1.48,0,0,1-1-1.55,5,5,0,0,1,.23-1.38A6.22,6.22,0,0,1,49.29,15c.24-.39.47-.59.7-.59a.46.46,0,0,1,.24.12.35.35,0,0,1,.1.24,2.47,2.47,0,0,1-.32.9c-.15.32-.29.68-.44,1.06a3.24,3.24,0,0,0-.22,1.13.85.85,0,0,0,.31.74,1.34,1.34,0,0,0,.79.2,3.66,3.66,0,0,0,1.88-.71c.74-.48,1.4-.95,2-1.42A4.09,4.09,0,0,1,55.57,15.86Zm-5.2-2.6a.44.44,0,0,1-.29-.41V12.7a.6.6,0,0,1,.29-.51.75.75,0,0,1,.34-.09.59.59,0,0,1,.61.63.58.58,0,0,1-.18.42.58.58,0,0,1-.43.18A.86.86,0,0,1,50.37,13.26Z"/><path class="cls-1" d="M65.34,15.86s0,0,0,0v0h0l-.46.7c-.35.49-.77,1-1.29,1.66a13.43,13.43,0,0,1-1.65,1.64,2.69,2.69,0,0,1-1.61.71.7.7,0,0,1-.74-.42,2.47,2.47,0,0,1-.16-.79A8,8,0,0,1,60,16.77c.36-1,.71-1.85,1-2.56a4.65,4.65,0,0,0,.39-1c0-.06,0-.09-.1-.09-.27,0-.74.31-1.39.94s-1.34,1.32-2,2.07L56.3,17.72c-.45.45-.76.67-.92.67s-.44-.19-.44-.56v-.12a5.08,5.08,0,0,1,.28-1.52,8.42,8.42,0,0,1,.67-1.57c.26-.45.5-.68.73-.68s.36.09.36.27a1.58,1.58,0,0,1-.16.49l-.35.82c-.19.41-.36.79-.51,1.17a2.47,2.47,0,0,0-.22.8v0s.2-.12.44-.36l.92-.92c.78-.81,1.61-1.63,2.5-2.46s1.53-1.24,1.9-1.24a.66.66,0,0,1,.4.19.56.56,0,0,1,.16.4,3.75,3.75,0,0,1-.23,1c-.16.47-.35,1-.57,1.55-.28.74-.54,1.48-.78,2.21a6,6,0,0,0-.37,1.75.77.77,0,0,0,.08.4.39.39,0,0,0,.15.14.33.33,0,0,0,.14,0,2.68,2.68,0,0,0,1.69-1c.65-.66,1.27-1.33,1.85-2q.49-.59.84-1C65.1,16,65.25,15.86,65.34,15.86Z"/><path class="cls-1" d="M77.21,15.86h.05s0,0,0,0,0,0,0,.07a4.57,4.57,0,0,1-.88.52,15.56,15.56,0,0,1-2.15.92,7.21,7.21,0,0,1-2.43.45,2.29,2.29,0,0,1-1.82-.64,2.81,2.81,0,0,1-.56-1.91c0-.18-.07-.26-.22-.26h0a1.22,1.22,0,0,0-.7.35,2.43,2.43,0,0,0-.66.88c-.22.44-.37.66-.47.66l0,0a.25.25,0,0,1,0-.1.44.44,0,0,1,0-.17V16.5h0a.46.46,0,0,0-.21.12l-.38.32c-.3.26-.64.52-1,.78a1.65,1.65,0,0,1-.85.39.58.58,0,0,1-.56-.56v-.08a2.75,2.75,0,0,1,.5-1.34,7,7,0,0,1,1.19-1.51,2,2,0,0,1,1.3-.67.56.56,0,0,1,.55.27,1.73,1.73,0,0,1,.2.51.6.6,0,0,0,.05.16s0,.06,0,.06a.86.86,0,0,0,.29-.17,5.16,5.16,0,0,1,.46-.29.9.9,0,0,1,.48-.15.52.52,0,0,1,.53.33,5.07,5.07,0,0,1,.23.79,4.8,4.8,0,0,0,.24.88,1.74,1.74,0,0,0,.55.76,1.82,1.82,0,0,0,1.15.3,5.82,5.82,0,0,0,2-.38c.7-.25,1.31-.49,1.85-.74A3.76,3.76,0,0,1,77.21,15.86Zm-10.54.32c.31-.25.53-.43.66-.56a.52.52,0,0,0,.17-.34v0a1.12,1.12,0,0,0,0-.27.18.18,0,0,0,0-.07s0,0-.07,0a.85.85,0,0,0-.53.29,5.18,5.18,0,0,0-.62.68c-.2.26-.37.49-.51.71a1.46,1.46,0,0,0-.21.4,0,0,0,0,0,0,0A5.41,5.41,0,0,0,66.67,16.18Z"/><path class="cls-1" d="M96.11,13a1.17,1.17,0,0,1,.42.06.46.46,0,0,1,.23.15.35.35,0,0,1,.09.15.51.51,0,0,1,0,.1v0c0,.11-.15.17-.41.17h-.7a8.9,8.9,0,0,0-1.39.14l-.17.06a.14.14,0,0,0,0,.09v.14a4.51,4.51,0,0,1-1,1.91,25.66,25.66,0,0,1-2.57,2.94,21.67,21.67,0,0,1-3.26,2.67,5.68,5.68,0,0,1-3,1.13,3.39,3.39,0,0,1-.78-.14,1.8,1.8,0,0,1-.91-.64,2.26,2.26,0,0,1-.4-1.48,4.38,4.38,0,0,1,.65-2.24,11.52,11.52,0,0,1,1.65-2.13,19.79,19.79,0,0,1,2.12-1.88c.74-.58,1.43-1.1,2.06-1.57s1-.75,1.39-1,.53-.5.53-.64-.14-.34-.44-.53S89.48,10,89,9.81s-.81-.43-1.21-.68a4.44,4.44,0,0,1-1-.79,1.27,1.27,0,0,1-.42-.91,1.26,1.26,0,0,1,.71-1,7.06,7.06,0,0,1,1.7-.76,14.53,14.53,0,0,1,2-.49A9.71,9.71,0,0,1,92.27,5a3.39,3.39,0,0,1,1.81.41,1.33,1.33,0,0,1,.64,1.19,2.28,2.28,0,0,1-.47,1.3,5.58,5.58,0,0,1-1.07,1.19,1.73,1.73,0,0,1-.93.5A.4.4,0,0,1,92,9.5.29.29,0,0,1,92,9.28a.46.46,0,0,1,.2-.33l.5-.42a8.13,8.13,0,0,0,1-.89,1.58,1.58,0,0,0,.48-1.13c0-.73-.67-1.12-2-1.17A7.59,7.59,0,0,0,90,5.7a11.11,11.11,0,0,0-2.09.82c-.59.32-.88.61-.88.89s.2.53.6.78A15.93,15.93,0,0,0,89,8.92a14.91,14.91,0,0,1,1.7.91,1.29,1.29,0,0,1,.75,1.05c0,.33-.28.73-.83,1.2s-1.23,1-2,1.62-1.72,1.3-2.58,2a14.16,14.16,0,0,0-2.21,2.34,4.18,4.18,0,0,0-.91,2.52,1.34,1.34,0,0,0,1.5,1.53,5.27,5.27,0,0,0,2.83-1,18.63,18.63,0,0,0,2.94-2.46,22,22,0,0,0,2.31-2.71,4.17,4.17,0,0,0,.91-1.79v0h0l-.46.14-1,.37L90.78,15a5,5,0,0,0-.7.32,1.2,1.2,0,0,1-.5.22.21.21,0,0,1-.17-.07.22.22,0,0,1-.08-.18v-.05c.13-.34.66-.68,1.58-1a23.41,23.41,0,0,1,3-.89A12.13,12.13,0,0,1,96.11,13Z"/><path class="cls-1" d="M130.65,13.6v0a.39.39,0,0,1-.12.25l-.3.31-.07.07s0,0-.1-.1a3.47,3.47,0,0,0-.52-.41,1.94,1.94,0,0,0-.81-.32l0,.15c-.08.31-.3.92-.64,1.83a31.89,31.89,0,0,1-1.51,3.28A30.32,30.32,0,0,1,124,22.64a22.5,22.5,0,0,1-3.59,3.81,18,18,0,0,1-4.81,2.89,16,16,0,0,1-6.17,1.12c-.38,0-.73,0-1.07-.05h-.07a8.37,8.37,0,0,1-4.67-1.79,4.34,4.34,0,0,1-1.55-3.36A7.2,7.2,0,0,1,104,20.6a18.75,18.75,0,0,1,5.13-4.11,32.55,32.55,0,0,1,15.59-4c.87,0,1.61,0,2.23.09l.7,0c.12,0,.29-.42.51-1.24s.46-1.84.7-3,.43-2.4.6-3.61a22,22,0,0,0,.26-2.95c0-.55-.06-.82-.17-.82h0a24.3,24.3,0,0,1-12.87,3.76,10.62,10.62,0,0,1-1.76-.12,4.5,4.5,0,0,1-1.08-.3,1.64,1.64,0,0,1-.56-.38,1,1,0,0,1-.21-.34,1.5,1.5,0,0,1,0-.17c0-.23.15-.35.46-.36a1.15,1.15,0,0,1,.63.17,4.87,4.87,0,0,0,1.08.39,11,11,0,0,0,2.37.19,21.4,21.4,0,0,0,5.17-.55A21.07,21.07,0,0,0,126.45,2c1-.46,1.75-.85,2.3-1.17a2.58,2.58,0,0,1,1-.48c.21,0,.38.14.51.44a4.65,4.65,0,0,1,.2,1.64,25.52,25.52,0,0,1-.31,3.89c-.2,1.36-.42,2.59-.66,3.68L129,12.39c-.06.24-.1.37-.1.39a1,1,0,0,0,.32.09c.27.07.57.16.89.27A.86.86,0,0,1,130.65,13.6Zm-3-.31a3.92,3.92,0,0,0-1.1-.16c-.69-.06-1.49-.09-2.38-.09a29.84,29.84,0,0,0-8.28,1.13A29.28,29.28,0,0,0,109,17.11,17.92,17.92,0,0,0,104.25,21a6.46,6.46,0,0,0-1.73,4.08,4,4,0,0,0,1.87,3.35,8.23,8.23,0,0,0,4.81,1.31,17.54,17.54,0,0,0,2-.17,17.12,17.12,0,0,0,6.28-2.36,21.14,21.14,0,0,0,4.64-4,25.59,25.59,0,0,0,3.13-4.42,27.19,27.19,0,0,0,1.77-3.75A9.76,9.76,0,0,0,127.64,13.29Z"/><path class="cls-1" d="M140.63,15.86h0s0,0,0,0v0a3.31,3.31,0,0,1-.6,1.1,23,23,0,0,1-1.45,1.9,17.83,17.83,0,0,1-1.74,1.81,2.45,2.45,0,0,1-1.41.78l-.15,0a.71.71,0,0,1-.26-.15,1.06,1.06,0,0,1-.27-.36,1.59,1.59,0,0,1-.12-.68,7.47,7.47,0,0,1,.64-2.74Q136,16,136.4,15.11a3.54,3.54,0,0,0,.2-.46,3.76,3.76,0,0,0-.73.68c-.41.42-.89.9-1.46,1.44a20.82,20.82,0,0,1-1.67,1.44,2.51,2.51,0,0,1-1.36.61.78.78,0,0,1-.59-.29,1.23,1.23,0,0,1-.26-.85,3.87,3.87,0,0,1,.25-1.31,5.44,5.44,0,0,1,.62-1.23c.24-.34.47-.52.68-.52a.49.49,0,0,1,.18.05.18.18,0,0,1,.11.17,3.13,3.13,0,0,1-.27.68c-.16.39-.33.83-.52,1.32A3.81,3.81,0,0,0,131.3,18c0,.25.09.37.27.37.34,0,.89-.35,1.64-1s1.49-1.41,2.22-2.15c.46-.47.85-.87,1.18-1.18s.55-.48.64-.48l.1,0a.14.14,0,0,1,.07.08.16.16,0,0,1,.1.17v0a8.07,8.07,0,0,1-.63,1.8q-.51,1.29-1,2.73a7.38,7.38,0,0,0-.51,2.28c0,.22.09.34.27.34h.07c.26,0,.65-.26,1.18-.78s1.07-1.11,1.64-1.78,1-1.25,1.45-1.78.61-.8.61-.81l0,0Z"/><path class="cls-1" d="M152.48,15.86h.05s0,0,.05,0,0,0,0,.07a4.57,4.57,0,0,1-.88.52,15.56,15.56,0,0,1-2.15.92,7.21,7.21,0,0,1-2.43.45,2.29,2.29,0,0,1-1.82-.64,2.86,2.86,0,0,1-.56-1.91c0-.18-.07-.26-.22-.26h0a1.22,1.22,0,0,0-.7.35,2.43,2.43,0,0,0-.66.88c-.21.44-.37.66-.47.66l0,0a.25.25,0,0,1,0-.1.44.44,0,0,1,0-.17V16.5h0a.46.46,0,0,0-.21.12l-.38.32c-.3.26-.64.52-1,.78a1.65,1.65,0,0,1-.85.39.58.58,0,0,1-.56-.56v-.08a2.86,2.86,0,0,1,.5-1.34,7,7,0,0,1,1.19-1.51,2,2,0,0,1,1.3-.67.59.59,0,0,1,.56.27,2,2,0,0,1,.19.51,1.56,1.56,0,0,0,0,.16s0,.06.05.06a.86.86,0,0,0,.29-.17,5.16,5.16,0,0,1,.46-.29.91.91,0,0,1,.49-.15.52.52,0,0,1,.52.33,5.07,5.07,0,0,1,.23.79,4.8,4.8,0,0,0,.24.88,1.74,1.74,0,0,0,.55.76,1.82,1.82,0,0,0,1.15.3,5.78,5.78,0,0,0,2-.38c.7-.25,1.31-.49,1.85-.74A3.76,3.76,0,0,1,152.48,15.86Zm-10.54.32c.31-.25.53-.43.66-.56a.52.52,0,0,0,.17-.34v0a1.12,1.12,0,0,0,0-.27.18.18,0,0,0-.05-.07s0,0-.07,0a.85.85,0,0,0-.53.29,5.18,5.18,0,0,0-.62.68c-.2.26-.37.49-.51.71a1.46,1.46,0,0,0-.21.4,0,0,0,0,0,0,0A5.41,5.41,0,0,0,141.94,16.18Z"/><path class="cls-1" d="M162.25,15.86s0,0,0,0v0h0l-.46.7c-.34.49-.77,1-1.29,1.66a13.43,13.43,0,0,1-1.65,1.64,2.69,2.69,0,0,1-1.61.71.71.71,0,0,1-.74-.42,2.47,2.47,0,0,1-.16-.79,8,8,0,0,1,.55-2.64c.37-1,.71-1.85,1-2.56a4.65,4.65,0,0,0,.39-1c0-.06,0-.09-.1-.09-.27,0-.74.31-1.39.94s-1.34,1.32-2,2.07-1.1,1.14-1.56,1.59-.76.67-.92.67-.44-.19-.44-.56v-.12a5.42,5.42,0,0,1,.28-1.52,8.42,8.42,0,0,1,.67-1.57c.26-.45.5-.68.73-.68s.36.09.36.27a1.58,1.58,0,0,1-.16.49l-.35.82c-.19.41-.36.79-.51,1.17a2.77,2.77,0,0,0-.22.8v0s.2-.12.44-.36l.92-.92c.78-.81,1.61-1.63,2.5-2.46s1.53-1.24,1.9-1.24a.63.63,0,0,1,.4.19.52.52,0,0,1,.16.4,3.75,3.75,0,0,1-.23,1c-.16.47-.35,1-.57,1.55-.28.74-.54,1.48-.78,2.21a5.94,5.94,0,0,0-.36,1.75.79.79,0,0,0,.07.4.35.35,0,0,0,.16.14.27.27,0,0,0,.13,0,2.68,2.68,0,0,0,1.69-1q1-1,1.86-2c.32-.39.6-.71.83-1S162.17,15.86,162.25,15.86Z"/></g></g></svg>