<svg xmlns="http://www.w3.org/2000/svg" viewBox="0 0 211.1 80.39"><defs><style>.cls-1{fill:#ef364c;}</style></defs><g id="Capa_2" data-name="Capa 2"><g id="Capa_1-2" data-name="Capa 1"><path class="cls-1" d="M79.49,0c.39,0,.62.47.71,1.41q0,3.84-7.41,13.49A147.4,147.4,0,0,1,53.3,35.23,140.5,140.5,0,0,1,26.67,53.72a5.42,5.42,0,0,0-1.8,1.22c0,.08.37.17,1.09.26A57.73,57.73,0,0,1,32.85,57a48.56,48.56,0,0,1,11.06,5.32A55.77,55.77,0,0,1,56.41,73.4,6.28,6.28,0,0,1,58,77.19c0,.81-.25,1.25-.77,1.34a1.87,1.87,0,0,1-1.21-.7,2.64,2.64,0,0,1-.65-1.73c-.25-1.16-1.47-2.79-3.65-4.91a65.49,65.49,0,0,0-8.21-6.6A61.61,61.61,0,0,0,33,58.72a26.38,26.38,0,0,0-10.51-2.43c-.3,0-.68.74-1.12,2.24s-.9,3.26-1.35,5.29-.82,4-1.12,5.8a28.43,28.43,0,0,0-.45,3.78v.39a.57.57,0,0,0,.06.25v.39a1.32,1.32,0,0,1-.35.9,1.41,1.41,0,0,1-.93.44,1.13,1.13,0,0,1-.83-.38,1.45,1.45,0,0,1-.2-.77v-.26a29.08,29.08,0,0,1,.61-4.93q.61-3.21,1.32-6.28c.47-2.06.83-3.62,1.09-4.68l.19-.84a.12.12,0,0,0,0-.09.12.12,0,0,0-.1,0,8,8,0,0,0-1.47.58q-2.19,1-6.12,2.31a24,24,0,0,1-7.79,1.34C1.5,61.73.21,61.09,0,59.81a3.15,3.15,0,0,1,1.92-2.88,15.47,15.47,0,0,1,4.59-1.51,41.56,41.56,0,0,1,5.16-.61c1.66-.08,2.86-.13,3.59-.13h2.11a2.88,2.88,0,0,0,2.21-.86,11.78,11.78,0,0,0,1.77-4q1-3.18,2.69-9.84.64-2.5,1.47-5.58Q32.64,7.12,35.19,7.12c.6,0,.9.27.9.83,0,.09-.28,1-.83,2.79S34,14.81,33.14,17.63Q31.09,24.23,28.69,32t-4.2,14a47.92,47.92,0,0,0-1.8,7.21c0,.17.07.26.2.26q2.43,0,10.19-5.17A180.16,180.16,0,0,0,50.16,35.16,166.84,166.84,0,0,0,67.34,18.21q7.86-9,11.06-16.93C78.83.43,79.19,0,79.49,0ZM15.13,55.77a41.42,41.42,0,0,0-6.22.39,20.76,20.76,0,0,0-4.07,1,10.79,10.79,0,0,0-2.4,1.15,4.35,4.35,0,0,0-1.13,1,2.27,2.27,0,0,0-.28.51c0,.09.06.13.19.13a6,6,0,0,0,2.56.58c.81-.05,1.63-.13,2.44-.26A48.32,48.32,0,0,0,10.9,59c1.71-.56,3.21-1.12,4.52-1.7s2-1,2-1.12-.57-.39-1.73-.39Z"/><path class="cls-1" d="M119.94,34.23a3.33,3.33,0,0,1,1.12.16,1.53,1.53,0,0,1,.61.39.91.91,0,0,1,.23.41,2.23,2.23,0,0,1,0,.26v.07c0,.29-.41.44-1.09.44H119a21.35,21.35,0,0,0-3.65.39,1,1,0,0,0-.45.16.26.26,0,0,0-.13.22v.39c0,.9-.9,2.57-2.69,5a66.12,66.12,0,0,1-6.8,7.76A57.17,57.17,0,0,1,96.67,57q-4.48,3-8,3a8.36,8.36,0,0,1-2-.38,4.93,4.93,0,0,1-2.41-1.67,6.1,6.1,0,0,1-1-3.91,11.43,11.43,0,0,1,1.73-5.93,29.11,29.11,0,0,1,4.36-5.61,53.33,53.33,0,0,1,5.57-5c2-1.52,3.79-2.89,5.45-4.13q2.25-1.61,3.66-2.73c.94-.75,1.41-1.31,1.41-1.7s-.39-.88-1.16-1.38-1.73-1-2.88-1.63-2.14-1.15-3.21-1.8A13.09,13.09,0,0,1,95.39,22a3.4,3.4,0,0,1-1.09-2.4,3.32,3.32,0,0,1,1.86-2.73,19.11,19.11,0,0,1,4.49-2,40.89,40.89,0,0,1,5.19-1.28,24.65,24.65,0,0,1,4-.45,8.88,8.88,0,0,1,4.78,1.09,3.53,3.53,0,0,1,1.7,3.14A6.19,6.19,0,0,1,115,20.8a15.29,15.29,0,0,1-2.82,3.14,4.53,4.53,0,0,1-2.47,1.32,1.27,1.27,0,0,1-.58-.19.78.78,0,0,1-.19-.58,1.27,1.27,0,0,1,.55-.87c.36-.32.8-.69,1.31-1.12a21.63,21.63,0,0,0,2.6-2.34,4.21,4.21,0,0,0,1.25-3c0-1.92-1.78-2.95-5.32-3.08a20.48,20.48,0,0,0-5.68.93,29.42,29.42,0,0,0-5.51,2.18q-2.34,1.26-2.34,2.34c0,.73.53,1.41,1.6,2.05a33,33,0,0,0,3.78,1.93,39.62,39.62,0,0,1,4.49,2.4c1.33.83,2,1.76,2,2.79,0,.86-.73,1.91-2.18,3.17s-3.25,2.69-5.39,4.27-4.54,3.42-6.82,5.38a38.71,38.71,0,0,0-5.84,6.19,11,11,0,0,0-2.4,6.63c0,2.7,1.32,4,4,4a13.76,13.76,0,0,0,7.47-2.72,49.59,49.59,0,0,0,7.76-6.48,58.06,58.06,0,0,0,6.09-7.15q2.4-3.39,2.4-4.74v-.1s0,0-.13,0-.44.13-1.21.39-1.67.57-2.7,1-2,.75-2.85,1.09a12.87,12.87,0,0,0-1.83.83,3,3,0,0,1-1.34.58.67.67,0,0,1-.45-.16.59.59,0,0,1-.19-.48v-.13q.51-1.35,4.16-2.73a63.2,63.2,0,0,1,7.89-2.34A31.78,31.78,0,0,1,119.94,34.23Z"/><path class="cls-1" d="M211.1,35.9V36a1,1,0,0,1-.32.68c-.21.23-.47.5-.77.8l-.19.19s-.13-.08-.26-.26a12,12,0,0,0-1.37-1.09,5.28,5.28,0,0,0-2.15-.83l-.13.39q-.32,1.21-1.7,4.84a88.1,88.1,0,0,1-4,8.65,79.19,79.19,0,0,1-6.57,10.42,60.48,60.48,0,0,1-9.49,10.06,47,47,0,0,1-12.7,7.63,42.41,42.41,0,0,1-16.28,3c-1,0-1.92,0-2.82-.13h-.19q-8.2-1-12.31-4.71a11.51,11.51,0,0,1-4.1-8.88q0-6.29,5.06-12.31A49.07,49.07,0,0,1,154.4,43.53a81.83,81.83,0,0,1,19.2-7.69A83.59,83.59,0,0,1,195.52,33a57.67,57.67,0,0,1,5.9.26q1.29.06,1.86.06T204.63,30c.6-2.18,1.2-4.85,1.82-8s1.16-6.34,1.61-9.52a57.83,57.83,0,0,0,.67-7.79c0-1.45-.15-2.18-.45-2.18h-.06a64.15,64.15,0,0,1-34,9.94,28.16,28.16,0,0,1-4.65-.32,11.55,11.55,0,0,1-2.85-.81,4.43,4.43,0,0,1-1.47-1,2.39,2.39,0,0,1-.55-.9c-.06-.25-.1-.4-.1-.44,0-.6.41-.92,1.22-1a3.24,3.24,0,0,1,1.67.45,12.57,12.57,0,0,0,2.85,1,27.36,27.36,0,0,0,6.25.51,57.43,57.43,0,0,0,13.66-1.44A55.33,55.33,0,0,0,200,5.32c2.61-1.2,4.64-2.22,6.09-3.08A6.91,6.91,0,0,1,208.79,1c.56,0,1,.4,1.35,1.19a12.37,12.37,0,0,1,.51,4.32,69,69,0,0,1-.8,10.26q-.79,5.39-1.76,9.71t-1.41,6.25c-.17.65-.26,1-.26,1a2.52,2.52,0,0,0,.84.26,22,22,0,0,1,2.34.7A2.22,2.22,0,0,1,211.1,35.9Zm-7.95-.83a9.77,9.77,0,0,0-2.88-.42c-1.84-.15-3.94-.22-6.28-.22a78.4,78.4,0,0,0-21.87,3,75.64,75.64,0,0,0-18.23,7.75,47.62,47.62,0,0,0-12.47,10.36q-4.56,5.56-4.55,10.77,0,5.38,4.93,8.84t12.7,3.47a48.78,48.78,0,0,0,5.38-.45,45.35,45.35,0,0,0,16.57-6.22A55.45,55.45,0,0,0,188.7,61.48,69,69,0,0,0,197,49.81a75.56,75.56,0,0,0,4.68-9.9A26.76,26.76,0,0,0,203.15,35.07Z"/></g></g></svg>