<svg xmlns="http://www.w3.org/2000/svg" viewBox="0 0 24.22 35.75"><defs><style>.cls-1{fill:#3c3c3b;}</style></defs><g id="Capa_2" data-name="Capa 2"><g id="Capa_1-2" data-name="Capa 1"><path class="cls-1" d="M20.73,31.13h0c0-.47,0-.94,0-1.39,0-2.24-.07-4.48-.23-6.71-.31-4.48-1.13-8.89-.37-13.37a.12.12,0,0,0-.24-.06c-1.07,4-.11,8.35.19,12.41q.24,3.25.27,6.51A25.05,25.05,0,0,1,20,34.7H20a13,13,0,0,1-5.5.57,4,4,0,0,1-2.22-1.09,3.76,3.76,0,0,1-.65-2.79c.12-3.42.2-6.87.5-10.28a38.23,38.23,0,0,1,.84-5,23.35,23.35,0,0,0,1.68-2.51c.69-1.07,1.4-2.12,2.12-3.17.34-.49.68-1,1-1.48.23-.32.63-.71.6-1.14,0-.61-.71-.77-1-1.22a.13.13,0,0,0-.12-.07h0c.44-.46,1.42-1.07,1.06-1.77A11,11,0,0,0,16.9,3l-.53-.64c1.11.59,2.26,1.12,3.39,1.67a16.31,16.31,0,0,1,1.62.81,3.09,3.09,0,0,1,1.12,2,41.46,41.46,0,0,1,.94,8.24c.17,2.71.27,5.41.33,8.11,0,1.39,0,2.78.05,4.16a32,32,0,0,0,.08,3.92,12.49,12.49,0,0,1-3.17-.13ZM11.52,24c-.09,1.93-.17,3.85-.25,5.78a9.84,9.84,0,0,0,.15,3.86.16.16,0,0,0-.2.13c-.41,1.59-3.18,1.08-4.31.82a6.93,6.93,0,0,1-2.07-.74c-.86-.54-.9-1.28-.85-2.19.08-1.56.52-3.1.74-4.66.18-1.29.29-2.59.36-3.89.14-2.84.07-5.68,0-8.52a23.69,23.69,0,0,0-1.17-8c-.05-.13-.27-.08-.22.06,1,3.38.94,7.05,1,10.56a56.08,56.08,0,0,1-.62,11.06c-.15.88-.4,1.84-.5,2.78a7.87,7.87,0,0,1-1.75,0C.59,30.8.54,29.74.49,28.72.41,27.33.37,25.94.36,24.55a68.88,68.88,0,0,1,.47-8.13A63.74,63.74,0,0,1,2.37,8.08c.16-.64.33-1.29.52-1.92A2.45,2.45,0,0,1,3.53,5a3.61,3.61,0,0,1,1.28-.69c1.25-.51,2.53-1,3.8-1.41C8.29,3.32,7.4,4.34,7.36,4.9S8.57,5.8,9.25,6L8.41,7c-.17.22-.54.53-.62.81-.15.51.24.85.52,1.27,1.13,1.7,2.25,3.4,3.38,5.09.15.85.32,1.69.5,2.52a.15.15,0,0,0,.22.08A49.4,49.4,0,0,0,11.52,24ZM9.73,1.76c-.07,2.3.64,4.72,1,7,.26,1.53.5,3.07.77,4.61L9.44,10.17c-.31-.47-1.3-1.56-1.27-2.11S9.31,6.43,9.66,6c.07-.09,0-.21-.1-.24a9.31,9.31,0,0,1-1.46-.5C7.63,5,7.78,5,7.89,4.58a3.57,3.57,0,0,1,.49-.81c.43-.68.89-1.34,1.35-2ZM10,1.35a0,0,0,0,0,0,0,2.84,2.84,0,0,0,2.22,1.25l-.06,0,0,.08-.06,0c-.59.62-1.1,1.31-1.68,1.94C10.21,3.62,10,2.53,10,1.44L10,1.35Zm.12-.18C11.72.39,13.67-.17,15,1.34a.61.61,0,0,0,0,.14l-.06,0c-.48.64-1.8.77-2.52.76a2.84,2.84,0,0,1-2.23-1,.09.09,0,0,0-.09,0l0,0Zm2.75,9a21.83,21.83,0,0,0-.18-5.71h.17a1.11,1.11,0,0,0,.48,0,2,2,0,0,0,.12.73c.09.23.23.56.47.65s.66-.19.82-.56c-.07.74-.15,1.48-.28,2.23-.32,1.94-.78,3.86-1.26,5.77-.21.84-.4,1.67-.58,2.5.23-1.83.18-3.72.24-5.56Zm1.66-5.48a1,1,0,0,1-.14.51c-.09.13-.13.18-.29.18s-.17,0-.25-.18a2.68,2.68,0,0,1-.33-1,1.24,1.24,0,0,0,.09-.39,7.66,7.66,0,0,0,.92.88ZM14,3.73l-.36-.34a.14.14,0,0,0-.11-.11,4.87,4.87,0,0,0-.43-.38s0,0,0-.08h0a.13.13,0,0,0-.05-.16.2.2,0,0,0-.08,0A3.27,3.27,0,0,0,15,2c-.05.82-.09,1.63-.15,2.44-.26-.25-.56-.47-.81-.71Zm-1.9-.54.15-.28h0l.06,0s0,0,0-.06a1.17,1.17,0,0,1,.29,0l.28,0c0,.21.25.45.43.61l-.06.31c0,.24-.11.31-.35.31s-.78.13-.82-.18a4.57,4.57,0,0,0,0-.74Zm-1,1.36a9.23,9.23,0,0,0,.83-1,1.85,1.85,0,0,0-.11.45.45.45,0,0,0,.08.26,3.79,3.79,0,0,1-.46.67c0,.05-.27.36-.36.31s0-.49,0-.58a.15.15,0,0,0,0-.07Zm1.38,11.36c0,.05.07.08.12.06-.05.2-.09.41-.13.61-.08-.58-.16-1.17-.25-1.75.12,0,.24-.13.15-.26l-.26-.39c-.27-1.65-.59-3.31-.87-5-.23-1.34-.5-2.69-.75-4.05a.12.12,0,0,0,.07,0l.19-.19c0,.38.09.83.51.6a1.8,1.8,0,0,0,.56-.63,2.61,2.61,0,0,0,.24-.54.6.6,0,0,0,.19.06l.27,0c.45,3.83-.27,7.64,0,11.47ZM15.32,1.82c.44.64,1,1.23,1.49,1.83.25.3.8.75.93,1.12.24.67-.33,1.13-.67,1.62a.09.09,0,0,0,.05.13.16.16,0,0,0-.08.19c.14.65,1,.68.72,1.53a6.4,6.4,0,0,1-.92,1.32l-1,1.49c-.59.88-1.19,1.77-1.76,2.68-.28.45-.6.9-.88,1.37.33-1.39.69-2.77,1-4.17a30.49,30.49,0,0,0,1.13-9.11Zm8.87,25.32c0-1.53,0-3.06-.08-4.58Q24,18,23.67,13.41c-.17-2.52-.2-5.32-1.24-7.68a3.35,3.35,0,0,0-1.95-1.66c-1.43-.72-2.85-1.48-4.31-2.13A.18.18,0,0,0,16,2a7.14,7.14,0,0,0-.54-.56.15.15,0,0,0-.12,0,.21.21,0,0,0,0-.24C13.89-.58,11.52-.13,9.91,1.06a.11.11,0,0,0,0,.09.08.08,0,0,0-.11.08.49.49,0,0,0,0,.12q-.42.51-.81,1H8.83A39.17,39.17,0,0,0,4.29,4.06c-1.39.6-1.57,1.35-2,2.77a63.89,63.89,0,0,0-1.9,10A74.09,74.09,0,0,0,0,27.13c0,.86.07,1.72.12,2.58,0,.37,0,1.09.25,1.41.6.65,2.29.26,3.13.13a6.18,6.18,0,0,0,0,1.49c.2,1.09,1,1.42,2,1.79,1.29.48,5.58,1.6,6-.64a2.38,2.38,0,0,0,.18.3c1.76,2.46,5.94,1.44,8.31.81h0a.06.06,0,0,0,.08,0,8.45,8.45,0,0,0,.59-3.61,6,6,0,0,0,3.27.2.16.16,0,0,0,.07-.25,25.09,25.09,0,0,0,.12-4.16Z"/><path class="cls-1" d="M13.44,6a.19.19,0,0,0-.16.28v0a.17.17,0,0,0,.32,0v0A.19.19,0,0,0,13.44,6Z"/><path class="cls-1" d="M13.62,7.39a.11.11,0,0,0-.11-.07.12.12,0,0,0-.11.18.2.2,0,1,0,.22-.11Z"/><path class="cls-1" d="M13.62,8.44a.24.24,0,0,0-.32.08l-.07.14a.24.24,0,0,0,.08.32.24.24,0,0,0,.33-.08l.07-.14a.24.24,0,0,0-.09-.32Z"/><path class="cls-1" d="M13.44,10.07a.24.24,0,0,0-.37.13l0,0a.21.21,0,0,0,.28.28l.08,0a.24.24,0,0,0,0-.4Z"/><path class="cls-1" d="M13.38,11.76s0,0,0-.07a.22.22,0,0,0-.42,0,.64.64,0,0,0,0,.07.24.24,0,0,0,.23.29.23.23,0,0,0,.22-.29Z"/><path class="cls-1" d="M13.55,19.31c-.42.06-.41-.48-.08-.6l0,0a1.09,1.09,0,0,1,.15.08.36.36,0,0,1,.13.21.26.26,0,0,1-.23.33Zm.55-.3a.65.65,0,0,0-.23-.41.42.42,0,0,0-.37-.12.08.08,0,0,0-.06,0,.6.6,0,0,0-.54.65.58.58,0,0,0,.66.52A.57.57,0,0,0,14.1,19Z"/><path class="cls-1" d="M13.33,23.28a.31.31,0,0,1-.43-.13.43.43,0,0,1,0-.37.09.09,0,0,0,.1,0c.17,0,.34-.08.46.08a.25.25,0,0,1-.12.39Zm.36-.57a.66.66,0,0,0-.66-.22.1.1,0,0,0-.14,0,.65.65,0,0,0-.24.88.62.62,0,0,0,.86.2.55.55,0,0,0,.18-.81Z"/><path class="cls-1" d="M13.06,27.21c-.32,0-.39-.31-.27-.54h.07c.11-.05.2-.11.32-.07a.32.32,0,0,1,.21.29.35.35,0,0,1-.33.33Zm.57-.55a.59.59,0,0,0-.42-.36.57.57,0,0,0-.36.06.59.59,0,1,0,.38,1.11.6.6,0,0,0,.4-.81Z"/><path class="cls-1" d="M8.94,14.72a7.61,7.61,0,0,0-2.13-.07.06.06,0,0,0,0,0,1.89,1.89,0,0,1,0-.41l1.4,0a2.81,2.81,0,0,1,.77,0c.09.1.06.26,0,.41Zm.18-.58a.12.12,0,0,0,0-.16c-.23-.36-.48-.71-.72-1.07-.11-.15-.22-.35-.43-.34s-.51.29-.68.44a3.22,3.22,0,0,0-.63.79c0,.08.08.18.14.1s.27-.32.41-.47.45-.5.62-.53c.37-.06.78.78,1,1.14a7.08,7.08,0,0,0-1.13,0L6.61,14a.13.13,0,0,0-.14.14,2.36,2.36,0,0,0,0,.7.13.13,0,0,0,.25,0h0A10.9,10.9,0,0,1,9,15a.14.14,0,0,0,.17-.13c0-.33.12-.59-.06-.74Z"/><path class="cls-1" d="M1.32,29.66a.2.2,0,0,1-.22-.21c0-.14.09-.2.18-.3a.34.34,0,0,1,.28.26.24.24,0,0,1-.24.25Zm.48-.28A.46.46,0,0,0,1.26,29h0c-.26-.06-.42.28-.41.49a.46.46,0,0,0,.53.42.47.47,0,0,0,.43-.53Z"/><path class="cls-1" d="M23.12,30.42c-.28,0-.26-.37-.09-.52a.07.07,0,0,0,.07.09c.28,0,.35.47,0,.43Zm.48-.24a.4.4,0,0,0-.46-.34.07.07,0,0,0-.06-.13.53.53,0,0,0-.44.54.49.49,0,0,0,.54.45.42.42,0,0,0,.42-.52Z"/></g></g></svg>