<svg xmlns="http://www.w3.org/2000/svg" viewBox="0 0 26.4 43.54"><defs><style>.cls-1{fill:#3c3c3b;}</style></defs><g id="Capa_2" data-name="Capa 2"><g id="Capa_1-2" data-name="Capa 1"><path class="cls-1" d="M24.37,36.75a6.57,6.57,0,0,1-1.86,1.89,2.52,2.52,0,0,1-1.38.11,6.92,6.92,0,0,1-3-3.85,15.39,15.39,0,0,1-.41-5.06,27.39,27.39,0,0,0,0-5A12.35,12.35,0,0,0,16,20.12a.05.05,0,1,0-.09.05A15.63,15.63,0,0,1,17.62,26c.09,1.92-.17,3.83-.13,5.75.05,2.52.81,5.77,3.28,7a1.4,1.4,0,0,0-.34.08,3.6,3.6,0,0,0-1.36,1.21,12.89,12.89,0,0,1-1.55,1.67c-1.41,1.21-3.48,2-5.24,1l-.45-.27a4.81,4.81,0,0,1-1.13-1.77,12.6,12.6,0,0,1-.59-3.09,19.21,19.21,0,0,1,.72-6.87,0,0,0,1,0-.05,0,17.54,17.54,0,0,0-.8,7.81A8.73,8.73,0,0,0,11,42a2.16,2.16,0,0,0-.49-.16A4.2,4.2,0,0,0,8.83,42a5.91,5.91,0,0,1-2.42.35,2.56,2.56,0,0,1-1.88-1.9,7.71,7.71,0,0,1-.16-2.71c0-1,.07-1.93,0-2.89a33.88,33.88,0,0,0-.67-5.22,26.71,26.71,0,0,1-.57-6.24,25.12,25.12,0,0,1,1.2-6.13c0-.13-.14-.17-.19-.06a20.54,20.54,0,0,0-.95,11.38,43.88,43.88,0,0,1,.88,6.76c0,1.19-.18,2.5-.11,3.75a8.4,8.4,0,0,1-1.69-.5,5.69,5.69,0,0,1-1.21-.92.13.13,0,0,0,0-.06c0-.05,0-.11-.05-.16l.12-.14s0,0,0,0l-.11.1a19.5,19.5,0,0,1-.49-7.61c.25-2.51.57-5,1-7.52a29.33,29.33,0,0,1,2.08-7.17A20.27,20.27,0,0,1,5.4,12,10.67,10.67,0,0,0,7,9.31a2.81,2.81,0,0,0,1.69.42.62.62,0,0,0,.32.62.69.69,0,0,0,1-.5c.36.31.88-.06,1.09-.43h0a2.16,2.16,0,0,0,1.11-.21,12.81,12.81,0,0,0,1.08,1.87c1.62,2.62,3.49,5.08,5,7.77,1.61,2.89,2.31,6,3.26,9.11.57,1.87,1.86,5.51,4.55,4.38h0a9.56,9.56,0,0,1-1.7,4.41ZM8.35,9a.89.89,0,0,0,.2.48,5.09,5.09,0,0,1-1.49-.32,5.84,5.84,0,0,0,.18-.83,2,2,0,0,0,1.12.48,1.15,1.15,0,0,0,0,.19Zm1.87.25A.43.43,0,0,0,10,8.8.78.78,0,0,0,9.87,8a.4.4,0,0,1,.28,0,.49.49,0,0,1,.27.37l-.1,0a.09.09,0,0,0,.06.14.53.53,0,0,1,.45.14.5.5,0,0,1,.05.54c-.13.3-.54.65-.87.45a.07.07,0,0,0-.09,0h0a.7.7,0,0,0,.34-.52ZM9.31,9.1c-.07,0-.15,0-.21-.09A.2.2,0,0,1,9,8.79a.19.19,0,0,1,.38.06,0,0,0,0,0,.07,0,.34.34,0,0,0-.63-.26.42.42,0,0,0,0,.51.48.48,0,0,0,.28.17.39.39,0,0,0,.08.37.49.49,0,0,0,.63.1h0l0,0c-.12.24-.37.52-.68.39A.45.45,0,0,1,9,9.48a.06.06,0,0,0,0-.07.08.08,0,0,0-.11-.05c-.13.06-.24-.25-.26-.32a.66.66,0,0,1,0-.28l.1,0a.12.12,0,0,0,0-.22A.89.89,0,0,1,9,8.28a.09.09,0,0,0,.1,0l.05-.06s0,0,0,0a.38.38,0,0,1,.45-.09.57.57,0,0,1,.23.68h0a.08.08,0,0,0,0,.1.39.39,0,0,1-.07.59.37.37,0,0,1-.39.07.25.25,0,0,1-.11-.32h0a.08.08,0,0,0,0-.13ZM11,8.58a1.22,1.22,0,0,0,1-.2h0a3.39,3.39,0,0,0,.13.55l-.4.17a3.33,3.33,0,0,1-.53.11A.67.67,0,0,0,11,8.58ZM5.82,3.73a12.15,12.15,0,0,0,1.43-.25,12.86,12.86,0,0,0,2.37-.6h0a6.34,6.34,0,0,0,3.79,1l.15,0A9.25,9.25,0,0,0,12,7.7a2.18,2.18,0,0,0,0,.51.1.1,0,0,0-.09,0c-.18,0-.34.12-.52.15a1.67,1.67,0,0,1-.63,0,.09.09,0,0,0-.1,0,.64.64,0,0,0-.32-.53.59.59,0,0,0-.66,0A.55.55,0,0,0,9,8.11a.8.8,0,0,0-.54.37A3,3,0,0,1,8,8.4a2.71,2.71,0,0,1-.68-.34A5.65,5.65,0,0,0,5.82,3.73ZM5,2.58c.8.51,3.32.28,4.39.15h0c-.65.13-1.29.31-1.94.44l-.9.16-.88.12c-.46.1-.68-.19-.67-.88ZM9.4,2.52c-.63,0-1.25.1-1.88.1-.39,0-.77,0-1.16,0s-1.61.1-1-.71c.32-.39,2.08,0,2.42.05a9.22,9.22,0,0,1,1.59.59Zm-.32-.44A6.19,6.19,0,0,0,7,1.52a4.13,4.13,0,0,0-1.92.2c.37-1.74,2.75-.52,4,.36ZM8,.87a5.82,5.82,0,0,1,.85.71A5.5,5.5,0,0,0,6.35.67,1.63,1.63,0,0,0,5.18,1C5.54-.15,7.21.38,8,.87ZM11.63.6A2,2,0,0,1,14.27,1,2.39,2.39,0,0,0,12.53.69a4.67,4.67,0,0,0-2.2.92,4.42,4.42,0,0,1,1.3-1ZM10,2.62h0l0,0C11,2.21,13.74.83,14.44,2h0c-.34,1.11-3.42.69-4.49.58Zm-.18-.18c1-1,3.81-2.57,4.62-.78-.69-1-3.79.41-4.62.78Zm-.16.26h.09s0,0,0,0l.13,0h0c.87.16,3.42.54,4.34-.05.08,1.91-3.61.39-4.64,0ZM26.14,32.09A.13.13,0,0,0,26,32c-3.25,1-4.13-4.33-4.71-6.44a30.57,30.57,0,0,0-2.81-7.21c-1.28-2.25-2.8-4.35-4.21-6.52-.69-1.06-1.92-2.52-1.91-3.83,0-1.47,1-3,1.54-4.3h0c.47-.21.83-.62.55-1.17h0a.66.66,0,0,0,.15-.6.09.09,0,0,0,.09-.09,1.17,1.17,0,0,0,0-.27.08.08,0,0,0,0-.07c0-1.2-1.16-1.67-2.21-1.49A4.21,4.21,0,0,0,9.64,2.12a5,5,0,0,0-2.9-2C5.94,0,5,.32,5,1.22a.78.78,0,0,0,0,.61.54.54,0,0,0-.16.26.42.42,0,0,0,.09.36.74.74,0,0,0,.47,1.27h.13a0,0,0,0,0,0,0A5.94,5.94,0,0,1,6.85,7.91,7.83,7.83,0,0,1,5,11.82a22.85,22.85,0,0,0-3.37,8A76.29,76.29,0,0,0,.31,28.4c-.37,3.11-.58,6.28.4,9.3a.18.18,0,0,0,.14.13A3.54,3.54,0,0,0,4,39.4a5.44,5.44,0,0,0,.33,1.46,2.74,2.74,0,0,0,2.78,1.86,19.48,19.48,0,0,0,2.17-.48c1.26-.24,1.89.35,2.93.88a4.6,4.6,0,0,0,4.19-.2,7.5,7.5,0,0,0,1.85-1.41,26.72,26.72,0,0,1,1.8-2c.59-.49,1-.29,1.72-.26a1.69,1.69,0,0,0,1-.34,7.43,7.43,0,0,0,1.73-1.72,9.12,9.12,0,0,0,1.87-5,.15.15,0,0,0-.26-.1Z"/></g></g></svg>